<svg width="44" height="40" viewBox="0 0 20 19" fill="none" xmlns="http://www.w3.org/2000/svg">
<path d="M0 19H20C20 19 18 14 14 14H6C2 14 0 19 0 19Z" fill="#F5F5F5"/>
<path d="M6 7C6 6.27143 6.19479 5.58835 6.53513 5C6.53513 5 5.35579 5.37925 5 6C4.6116 6.67763 4.6116 7.32237 5 8C5.35579 8.62075 6.53513 9 6.53513 9C6.19479 8.41165 6 7.72857 6 7Z" fill="#F5F5F5"/>
<path d="M14 7C14 7.72857 13.8052 8.41165 13.4649 9C13.4649 9 14.6442 8.62075 15 8C15.3884 7.32237 15.3884 6.67763 15 6C14.6442 5.37925 13.4649 5 13.4649 5C13.8052 5.58835 14 6.27143 14 7Z" fill="#F5F5F5"/>
<path fill-rule="evenodd" clip-rule="evenodd" d="M10 11C11.4806 11 12.7733 10.1956 13.4649 9C13.8052 8.41165 14 7.72857 14 7C14 6.27143 13.8052 5.58835 13.4649 5C13.1136 4.39274 12.6073 3.88641 12 3.53513C11.4117 3.19479 10.7286 3 10 3C9.27143 3 8.58835 3.19479 8 3.53513C7.39274 3.88641 6.88641 4.39274 6.53513 5C6.19479 5.58835 6 6.27143 6 7C6 7.72857 6.19479 8.41165 6.53513 9C7.22675 10.1956 8.51944 11 10 11ZM8 6C7.44772 6 7 6.44772 7 7C7 7.55228 7.44772 8 8 8C8.55228 8 9 7.55228 9 7C9 6.44772 8.55228 6 8 6ZM11 7C11 6.44772 11.4477 6 12 6C12.5523 6 13 6.44772 13 7C13 7.55228 12.5523 8 12 8C11.4477 8 11 7.55228 11 7Z" fill="#F5F5F5"/>
<path d="M10 0C9.72386 0 9.5 0.223858 9.5 0.5C9.5 0.776142 9.72386 1 10 1C10.2761 1 10.5 0.776142 10.5 0.5C10.5 0.223858 10.2761 0 10 0Z" fill="#F5F5F5"/>
<path d="M8 3.53513C8.58835 3.19479 9.27143 3 10 3C10.7286 3 11.4117 3.19479 12 3.53513C12 3.53513 11.5 2 11 2C11 2 10.6953 2 10.5 2C10.3047 2 10 2 10 2C10 2 9.69526 2 9.5 2C9.30474 2 9 2 9 2C8.5 2 8 3.53513 8 3.53513Z" fill="#F5F5F5"/>
<path d="M10 2V1C9.95561 1 9.91257 0.994215 9.8716 0.983359C9.8716 0.983359 10 1.5 9.5 2H10Z" fill="#F5F5F5"/>
<path d="M10 1V2H10.5C10 1.5 10.1284 0.983359 10.1284 0.983359C10.0874 0.994215 10.0444 1 10 1Z" fill="#F5F5F5"/>
</svg>
