<svg width="33" height="44" viewBox="0 0 33 44" fill="none" xmlns="http://www.w3.org/2000/svg">
<path fill-rule="evenodd" clip-rule="evenodd" d="M4.125 44C1.58654 44 0 42.073 0 40.7883V22.1606C0 20.8759 0.317308 17.6642 4.125 17.6642V11.2409C4.125 5.78102 8.56731 0 16.1827 0C23.7981 0 28.875 6.10219 28.875 11.2409V17.6642C32.6827 17.6642 33 20.8759 33 22.1606V40.7883C33 42.073 31.4135 44 28.875 44H4.125ZM8.88461 11.2409V17.6642L23.7981 17.6642V11.2409C23.7981 8.67153 21.2596 4.81752 16.1827 4.81752C11.7404 4.81752 8.88461 8.67153 8.88461 11.2409ZM12.6923 27.6204C12.6923 29.8686 14.5962 31.1533 14.5962 31.1533C14.5962 31.1533 13.9615 34.6861 13.6442 36.292C13.3269 37.8978 14.5962 37.8978 14.5962 37.8978H18.4038C18.4038 37.8978 19.6202 37.8978 19.3558 36.292C19.0913 34.6861 18.4038 31.1533 18.4038 31.1533C18.4038 31.1533 20.3077 30.1898 20.3077 27.2993C20.3077 25.0511 18.7212 23.7664 16.5 23.7664C14.2788 23.7664 12.6923 25.3723 12.6923 27.6204Z" fill="#F5F5F5"/>
</svg>
