<svg width="28" height="30" viewBox="0 0 28 30" fill="none" xmlns="http://www.w3.org/2000/svg">
<path d="M4.57496 19.105V15.885H1.47496C1.32829 15.885 1.20163 15.8317 1.09496 15.725C0.988294 15.6183 0.934961 15.4917 0.934961 15.345V13.165C0.934961 13.0183 0.988294 12.8917 1.09496 12.785C1.20163 12.6783 1.32829 12.625 1.47496 12.625H4.57496V9.50499C4.57496 9.35832 4.62829 9.23166 4.73496 9.12499C4.84163 9.01832 4.96829 8.96499 5.11496 8.96499H7.55496C7.70163 8.96499 7.82829 9.01832 7.93496 9.12499C8.04163 9.23166 8.09496 9.35832 8.09496 9.50499V12.625H11.155C11.3016 12.625 11.4283 12.6783 11.535 12.785C11.6416 12.8917 11.695 13.0183 11.695 13.165V15.345C11.695 15.4917 11.6416 15.6183 11.535 15.725C11.4283 15.8317 11.3016 15.885 11.155 15.885H8.09496V19.105C8.09496 19.2517 8.04163 19.3783 7.93496 19.485C7.82829 19.5917 7.70163 19.645 7.55496 19.645H5.11496C4.96829 19.645 4.84163 19.5917 4.73496 19.485C4.62829 19.3783 4.57496 19.2517 4.57496 19.105ZM25.5881 16.965C25.7348 16.965 25.8614 17.0183 25.9681 17.125C26.0748 17.2317 26.1281 17.3583 26.1281 17.505V20.545C26.1281 20.6917 26.0748 20.8183 25.9681 20.925C25.8614 21.0317 25.7348 21.085 25.5881 21.085H13.8281C13.6814 21.085 13.5548 21.0317 13.4481 20.925C13.3414 20.8183 13.2881 20.6917 13.2881 20.545V18.465C13.2881 17.985 13.4548 17.625 13.7881 17.385C16.6148 15.345 18.3281 14.065 18.9281 13.545C19.8748 12.7183 20.3481 12.0517 20.3481 11.545C20.3481 11.1317 20.2414 10.885 20.0281 10.805C19.9214 10.765 19.8014 10.745 19.6681 10.745C19.5481 10.745 19.4414 10.7583 19.3481 10.785C19.2681 10.7983 19.1948 10.825 19.1281 10.865C19.0614 10.8917 19.0014 10.9317 18.9481 10.985C18.8948 11.0383 18.8481 11.085 18.8081 11.125C18.7814 11.165 18.7481 11.225 18.7081 11.305C18.6681 11.385 18.6414 11.445 18.6281 11.485C18.5614 11.645 18.5281 11.7383 18.5281 11.765C18.4214 12.0717 18.1548 12.225 17.7281 12.225H13.9681C13.8481 12.225 13.7414 12.185 13.6481 12.105C13.5681 12.0117 13.5281 11.905 13.5281 11.785C13.5281 10.305 14.1014 9.10499 15.2481 8.18499C16.4081 7.26499 17.8814 6.80499 19.6681 6.80499C21.4681 6.80499 22.9014 7.20499 23.9681 8.00499C25.0481 8.79166 25.5881 9.88499 25.5881 11.285C25.5881 12.3383 25.2214 13.2917 24.4881 14.145C23.7548 14.9983 22.6348 15.9383 21.1281 16.965H25.5881Z" fill="#F5F5F5"/>
</svg>
