<svg width="28" height="30" viewBox="0 0 28 30" fill="none" xmlns="http://www.w3.org/2000/svg">
<path fill-rule="evenodd" clip-rule="evenodd" d="M7 17C6.98837 13.1224 10.1224 9.9579 14 9.9579C17.8776 9.9579 21.0116 13.1224 21 17C20.9884 20.866 17.866 24 14 24C10.134 24 7.01159 20.866 7 17ZM13 17C13 16.4477 13.4477 16 14 16C14.5523 16 15 16.4477 15 17C15 17.5523 14.5523 18 14 18C13.4477 18 13 17.5523 13 17Z" fill="#F5F5F5"/>
<path fill-rule="evenodd" clip-rule="evenodd" d="M14 9.9579C10.1224 9.9579 6.98837 13.1224 7 17C7.01159 20.866 10.134 24 14 24C17.866 24 20.9884 20.866 21 17C21.0116 13.1224 17.8776 9.9579 14 9.9579Z" fill="#F5F5F5"/>
<path d="M14 16C13.4477 16 13 16.4477 13 17C13 17.5523 13.4477 18 14 18C14.5523 18 15 17.5523 15 17C15 16.4477 14.5523 16 14 16Z" fill="#D41F28"/>
<path fill-rule="evenodd" clip-rule="evenodd" d="M1.21652e-10 20.4579C-3.18548e-05 17.4579 6.25595 4.5392 17 0.957916C28.5 -2.87534 20.8769 5.89629 25 7.95789C27 8.95791 29 18.5 26.5 22.5C24 26.5 18.7405 30.9301 10.5 28.4579C5.50002 26.9579 3.18551e-05 23.4579 1.21652e-10 20.4579ZM14 9.9579C10.1224 9.9579 6.98837 13.1224 7 17C7.01159 20.866 10.134 24 14 24C17.866 24 20.9884 20.866 21 17C21.0116 13.1224 17.8776 9.9579 14 9.9579Z" fill="#D41F28"/>
</svg>
