<svg width="139" height="195" viewBox="0 0 139 195" fill="none" xmlns="http://www.w3.org/2000/svg">
<rect width="139" height="195" rx="10" fill="#222222"/>
<path d="M77.8 72.8132C76.1352 72.9669 75.0233 71.9712 74.856 70.1586C74.689 68.3498 75.6189 67.1617 77.2331 67.0127C78.2834 66.9157 79.1394 67.3074 79.5992 68.081C79.6906 68.2216 79.7435 68.3697 79.7564 68.5097C79.7848 68.817 79.597 69.0344 79.2858 69.0631C79.0213 69.0876 78.8432 68.9863 78.6898 68.7259C78.3802 68.1778 77.8947 67.9323 77.3346 67.984C76.4477 68.0659 75.9445 68.8616 76.0537 70.0441C76.1643 71.2421 76.7965 71.9291 77.695 71.8461C78.2862 71.7916 78.7049 71.4822 78.9057 70.8949C79.0018 70.6193 79.1399 70.5006 79.3889 70.4776C79.7195 70.4471 79.9567 70.637 79.9855 70.9482C79.9977 71.0805 79.978 71.2078 79.9323 71.3493C79.654 72.1596 78.8619 72.7152 77.8 72.8132Z" fill="#EB6913"/>
<path d="M83.4097 73.2008C81.7758 72.8466 80.9893 71.533 81.3692 69.7807C81.7498 68.0246 83.0104 67.1508 84.6444 67.5049C86.2745 67.8583 87.0639 69.1765 86.6832 70.9326C86.3034 72.6849 85.0398 73.5541 83.4097 73.2008ZM83.6182 72.2387C84.5192 72.434 85.2537 71.8298 85.5036 70.6769C85.7543 69.5202 85.3368 68.6623 84.4358 68.467C83.5349 68.2717 82.7957 68.8789 82.545 70.0356C82.2951 71.1885 82.7135 72.0426 83.6182 72.2387ZM100.204 90.0524C100.095 89.6977 100.247 89.4221 100.617 89.3086L104.556 88.0988L104.215 86.9861C104.121 86.6799 104.233 86.4206 104.524 86.3312C104.816 86.2417 105.053 86.3895 105.148 86.6994L106.179 90.0564C106.273 90.3626 106.16 90.6182 105.868 90.7076C105.577 90.797 105.338 90.6456 105.246 90.3431L104.903 89.2266L100.963 90.4363C100.593 90.5498 100.313 90.4072 100.204 90.0524Z" fill="#D41F28"/>
<path d="M87.2972 74.2148C86.9652 74.0491 86.8706 73.7487 87.0449 73.3992L89.045 69.3899C89.2193 69.0403 89.5162 68.9352 89.8483 69.1009C90.1804 69.2665 90.275 69.5669 90.1006 69.9165L88.261 73.6042L90.0507 74.497C90.3373 74.64 90.4476 74.9001 90.3116 75.1728C90.1756 75.4454 89.9049 75.5156 89.6147 75.3708L87.2972 74.2148ZM98.0395 84.5593C97.8784 84.225 97.9875 83.9296 98.3393 83.7599L102.308 81.8464C102.657 81.6785 102.956 81.7772 103.117 82.1114L104.281 84.5252C104.421 84.8173 104.348 85.087 104.073 85.2194C103.799 85.3517 103.54 85.2379 103.401 84.9493L102.493 83.0668L101.272 83.6555L102.136 85.4465C102.263 85.7104 102.195 85.9645 101.942 86.0866C101.688 86.2088 101.449 86.1075 101.32 85.84L100.456 84.049L99.1754 84.6665L100.083 86.549C100.222 86.8375 100.15 87.1108 99.8755 87.2431C99.601 87.3754 99.344 87.2652 99.2032 86.9731L98.0395 84.5593Z" fill="#814492"/>
<path d="M92.2512 77.5929C90.9771 76.5103 90.9027 74.9811 92.0636 73.6147C93.227 72.2454 94.7507 72.0688 96.0248 73.1514C97.2959 74.2313 97.3708 75.7661 96.2074 77.1354C95.0465 78.5018 93.5223 78.6728 92.2512 77.5929ZM92.8886 76.8427C93.5911 77.4396 94.5237 77.2529 95.2875 76.3539C96.0539 75.4519 96.09 74.4984 95.3874 73.9015C94.6849 73.3046 93.7468 73.4918 92.9804 74.3937C92.2166 75.2928 92.183 76.2433 92.8886 76.8427ZM101.298 94.7113C101.237 94.3451 101.425 94.0924 101.807 94.0294L105.873 93.3586L105.683 92.2101C105.631 91.894 105.777 91.6522 106.078 91.6026C106.379 91.553 106.594 91.7312 106.647 92.0511L107.219 95.516C107.271 95.832 107.124 96.07 106.823 96.1196C106.523 96.1692 106.307 95.9871 106.255 95.675L106.065 94.5226L101.999 95.1934C101.617 95.2563 101.358 95.0774 101.298 94.7113Z" fill="#6098B5"/>
<path d="M95.1419 80.3633C94.9272 80.0654 94.9808 79.7523 95.2946 79.5262L98.9389 76.8997C99.2527 76.6736 99.5644 76.7186 99.7813 77.0197L100.786 78.414C101.544 79.4662 101.424 80.4679 100.521 81.1189C99.9503 81.53 99.259 81.5996 98.6803 81.2511L98.0145 82.7324C97.9354 82.9099 97.869 82.9914 97.7581 83.0714C97.5045 83.2541 97.1746 83.1837 96.9736 82.9048C96.8091 82.6767 96.8162 82.5127 96.9831 82.1565L97.8135 80.4024L97.2266 79.588L95.9843 80.4832C95.6706 80.7094 95.3589 80.6644 95.1419 80.3633ZM97.9206 79.0878L98.5144 79.9117C98.8615 80.3934 99.3405 80.4768 99.7937 80.1502C100.237 79.8304 100.308 79.327 99.9653 78.8516L99.3783 78.0372L97.9206 79.0878Z" fill="#FBD127"/>
<path d="M101.611 99.7726C101.614 98.1007 102.734 97.0563 104.527 97.0603C106.324 97.0642 107.442 98.1136 107.439 99.7854C107.435 101.453 106.312 102.502 104.515 102.498C102.722 102.494 101.607 101.441 101.611 99.7726ZM102.595 99.7747C102.593 100.697 103.338 101.288 104.517 101.291C105.701 101.293 106.452 100.705 106.454 99.7833C106.456 98.8614 105.708 98.266 104.524 98.2634C103.344 98.2608 102.597 98.849 102.595 99.7747Z" fill="#2E9550"/>
<path fill-rule="evenodd" clip-rule="evenodd" d="M47 86C46.9884 82.1224 50.1224 78.9579 54 78.9579C57.8776 78.9579 61.0116 82.1224 61 86C60.9884 89.866 57.866 93 54 93C50.134 93 47.0116 89.866 47 86ZM53 86C53 85.4477 53.4477 85 54 85C54.5523 85 55 85.4477 55 86C55 86.5523 54.5523 87 54 87C53.4477 87 53 86.5523 53 86Z" fill="#222222"/>
<path fill-rule="evenodd" clip-rule="evenodd" d="M40 89.4579C40 86.4579 46.2559 73.5392 57 69.9579C68.5 66.1247 60.8769 74.8963 65 76.9579C67 77.9579 72.7988 75.1495 78 75.4579C91 76.2285 98.9772 88.3667 99.5 101.958C100 114.958 90.2146 126.958 77.5 126.958C63 126.958 59.5 121 59.5 114.5C59.5 110.494 62.4942 107.885 66.5 107.958C69.9759 108.021 73.5 109.481 73.5 112.958C73.5 113.958 69.5153 109.924 67 110.958C65.335 111.642 64 112.658 64 114.458C64 118.958 70.3412 120.458 75.5 120.458C83 120.458 90.2497 114.453 90 108.458C89.5 96.4579 85 98.9579 72 98.9579C59 98.9579 55.5 98.9579 50.5 97.4579C45.5 95.9579 40 92.4579 40 89.4579ZM54 78.9579C50.1224 78.9579 46.9884 82.1224 47 86C47.0116 89.866 50.134 93 54 93C57.866 93 60.9884 89.866 61 86C61.0116 82.1224 57.8776 78.9579 54 78.9579Z" fill="#F5F5F5"/>
<path d="M54 85C53.4477 85 53 85.4477 53 86C53 86.5523 53.4477 87 54 87C54.5523 87 55 86.5523 55 86C55 85.4477 54.5523 85 54 85Z" fill="#F5F5F5"/>
</svg>
