<svg width="139" height="195" viewBox="0 0 139 195" fill="none" xmlns="http://www.w3.org/2000/svg">
<rect width="139" height="195" rx="10" fill="#222222"/>
<path fill-rule="evenodd" clip-rule="evenodd" d="M46.7407 85.5209C46.7291 81.6433 49.8631 78.4788 53.7407 78.4788C57.6184 78.4788 60.7523 81.6433 60.7407 85.5209C60.7291 89.3869 57.6067 92.5209 53.7407 92.5209C49.8747 92.5209 46.7523 89.3869 46.7407 85.5209ZM52.7407 85.5209C52.7407 84.9687 53.1884 84.5209 53.7407 84.5209C54.293 84.5209 54.7407 84.9687 54.7407 85.5209C54.7407 86.0732 54.293 86.5209 53.7407 86.5209C53.1884 86.5209 52.7407 86.0732 52.7407 85.5209Z" fill="#F5F5F5"/>
<path fill-rule="evenodd" clip-rule="evenodd" d="M39.7407 88.9788C39.7407 85.9788 45.9967 73.0601 56.7407 69.4789C68.2407 65.6456 60.6176 74.4172 64.7407 76.4788C66.7407 77.4788 72.5396 74.6704 77.7407 74.9788C90.7407 75.7495 98.7179 87.8877 99.2407 101.479C99.7408 114.479 89.9553 126.479 77.2407 126.479C62.7407 126.479 59.2407 120.521 59.2407 114.021C59.2407 110.014 62.2349 107.406 66.2407 107.479C69.7167 107.542 73.2407 109.002 73.2407 112.479C73.2407 113.479 69.256 109.444 66.7407 110.479C65.0757 111.163 63.7407 112.179 63.7407 113.979C63.7407 118.479 70.082 119.979 75.2407 119.979C82.7407 119.979 89.9904 113.974 89.7407 107.979C89.2407 95.9788 84.7407 98.4789 71.7407 98.4789C58.7407 98.4789 55.2407 98.4788 50.2407 96.9789C45.2407 95.4789 39.7408 91.9788 39.7407 88.9788ZM53.7407 78.4788C49.8631 78.4788 46.7291 81.6433 46.7407 85.5209C46.7523 89.3869 49.8747 92.5209 53.7407 92.5209C57.6067 92.5209 60.7291 89.3869 60.7407 85.5209C60.7523 81.6433 57.6184 78.4788 53.7407 78.4788Z" fill="#795034"/>
<path d="M53.7407 84.5209C53.1884 84.5209 52.7407 84.9687 52.7407 85.5209C52.7407 86.0732 53.1884 86.5209 53.7407 86.5209C54.293 86.5209 54.7407 86.0732 54.7407 85.5209C54.7407 84.9687 54.293 84.5209 53.7407 84.5209Z" fill="#795034"/>
</svg>
