<svg width="139" height="195" viewBox="0 0 139 195" fill="none" xmlns="http://www.w3.org/2000/svg">
<rect width="139" height="195" rx="10" fill="#222222"/>
<path d="M46.6 108.55V100.5H38.85C38.4833 100.5 38.1667 100.367 37.9 100.1C37.6333 99.8333 37.5 99.5167 37.5 99.15V93.7C37.5 93.3333 37.6333 93.0167 37.9 92.75C38.1667 92.4833 38.4833 92.35 38.85 92.35H46.6V84.55C46.6 84.1833 46.7333 83.8667 47 83.6C47.2667 83.3333 47.5833 83.2 47.95 83.2H54.05C54.4167 83.2 54.7333 83.3333 55 83.6C55.2667 83.8667 55.4 84.1833 55.4 84.55V92.35H63.05C63.4167 92.35 63.7333 92.4833 64 92.75C64.2667 93.0167 64.4 93.3333 64.4 93.7V99.15C64.4 99.5167 64.2667 99.8333 64 100.1C63.7333 100.367 63.4167 100.5 63.05 100.5H55.4V108.55C55.4 108.917 55.2667 109.233 55 109.5C54.7333 109.767 54.4167 109.9 54.05 109.9H47.95C47.5833 109.9 47.2667 109.767 47 109.5C46.7333 109.233 46.6 108.917 46.6 108.55ZM99.1328 103.2C99.4995 103.2 99.8161 103.333 100.083 103.6C100.349 103.867 100.483 104.183 100.483 104.55V112.15C100.483 112.517 100.349 112.833 100.083 113.1C99.8161 113.367 99.4995 113.5 99.1328 113.5H69.7328C69.3661 113.5 69.0495 113.367 68.7828 113.1C68.5161 112.833 68.3828 112.517 68.3828 112.15V106.95C68.3828 105.75 68.7995 104.85 69.6328 104.25C76.6995 99.15 80.9828 95.95 82.4828 94.65C84.8495 92.5833 86.0328 90.9167 86.0328 89.65C86.0328 88.6167 85.7661 88 85.2328 87.8C84.9661 87.7 84.6661 87.65 84.3328 87.65C84.0328 87.65 83.7661 87.6833 83.5328 87.75C83.3328 87.7833 83.1495 87.85 82.9828 87.95C82.8161 88.0167 82.6661 88.1167 82.5328 88.25C82.3995 88.3833 82.2828 88.5 82.1828 88.6C82.1161 88.7 82.0328 88.85 81.9328 89.05C81.8328 89.25 81.7661 89.4 81.7328 89.5C81.5661 89.9 81.4828 90.1333 81.4828 90.2C81.2161 90.9667 80.5495 91.35 79.4828 91.35H70.0828C69.7828 91.35 69.5161 91.25 69.2828 91.05C69.0828 90.8167 68.9828 90.55 68.9828 90.25C68.9828 86.55 70.4161 83.55 73.2828 81.25C76.1828 78.95 79.8661 77.8 84.3328 77.8C88.8328 77.8 92.4161 78.8 95.0828 80.8C97.7828 82.7667 99.1328 85.5 99.1328 89C99.1328 91.6333 98.2161 94.0167 96.3828 96.15C94.5495 98.2833 91.7495 100.633 87.9828 103.2H99.1328Z" fill="#F5F5F5"/>
<path fill-rule="evenodd" clip-rule="evenodd" d="M118.117 177.28C118.113 176.075 119.061 175.093 120.234 175.093C121.407 175.093 122.354 176.075 122.351 177.28C122.347 178.48 121.403 179.454 120.234 179.454C119.065 179.454 118.121 178.48 118.117 177.28ZM119.932 177.28C119.932 177.108 120.067 176.969 120.234 176.969C120.401 176.969 120.536 177.108 120.536 177.28C120.536 177.451 120.401 177.59 120.234 177.59C120.067 177.59 119.932 177.451 119.932 177.28Z" fill="#424041"/>
<path fill-rule="evenodd" clip-rule="evenodd" d="M116 178.354C116 177.422 117.892 173.41 121.141 172.297C124.619 171.107 122.314 173.831 123.561 174.471C124.166 174.782 125.919 173.91 127.492 174.006C131.424 174.245 133.836 178.015 133.994 182.236C134.146 186.273 131.186 190 127.341 190C122.956 190 121.897 188.15 121.897 186.131C121.897 184.887 122.803 184.077 124.014 184.099C125.066 184.119 126.131 184.572 126.131 185.652C126.131 185.963 124.926 184.71 124.166 185.031C123.662 185.243 123.258 185.559 123.258 186.118C123.258 187.515 125.176 187.981 126.736 187.981C129.004 187.981 131.197 186.116 131.121 184.254C130.97 180.528 129.609 181.304 125.678 181.304C121.746 181.304 120.688 181.304 119.175 180.838C117.663 180.372 116 179.285 116 178.354ZM120.234 175.093C119.061 175.093 118.113 176.075 118.117 177.28C118.121 178.48 119.065 179.454 120.234 179.454C121.403 179.454 122.347 178.48 122.351 177.28C122.354 176.075 121.407 175.093 120.234 175.093Z" fill="#424041"/>
<path d="M120.234 176.969C120.067 176.969 119.932 177.108 119.932 177.28C119.932 177.451 120.067 177.59 120.234 177.59C120.401 177.59 120.536 177.451 120.536 177.28C120.536 177.108 120.401 176.969 120.234 176.969Z" fill="#424041"/>
<path fill-rule="evenodd" clip-rule="evenodd" d="M20.883 10.2797C20.8865 9.07541 19.9387 8.09261 18.766 8.09261C17.5933 8.09261 16.6455 9.07541 16.649 10.2797C16.6525 11.4803 17.5968 12.4537 18.766 12.4537C19.9352 12.4537 20.8795 11.4803 20.883 10.2797ZM19.0684 10.2797C19.0684 10.1082 18.933 9.9691 18.766 9.9691C18.599 9.9691 18.4636 10.1082 18.4636 10.2797C18.4636 10.4512 18.599 10.5902 18.766 10.5902C18.933 10.5902 19.0684 10.4512 19.0684 10.2797Z" fill="#424041"/>
<path fill-rule="evenodd" clip-rule="evenodd" d="M23 11.3536C23 10.4219 21.108 6.40973 17.8587 5.2975C14.3808 4.10701 16.6862 6.8312 15.4393 7.47148C14.8345 7.78205 13.0807 6.90985 11.5078 7.00561C7.57618 7.24496 5.16365 11.0147 5.00555 15.2357C4.85432 19.2731 7.81372 22.9999 11.659 22.9999C16.0442 22.9999 17.1027 21.1496 17.1027 19.1309C17.1027 17.8866 16.1971 17.0766 14.9857 17.0991C13.9344 17.1187 12.8687 17.5723 12.8687 18.652C12.8687 18.9625 14.0737 17.7096 14.8345 18.0308C15.338 18.2434 15.7417 18.5587 15.7417 19.1178C15.7417 20.5154 13.824 20.9812 12.2638 20.9812C9.9956 20.9812 7.80309 19.1162 7.87862 17.2544C8.02982 13.5276 9.39075 14.304 13.3223 14.304C17.2539 14.304 18.3124 14.304 19.8245 13.8381C21.3366 13.3723 23 12.2853 23 11.3536ZM18.766 8.09261C19.9387 8.09261 20.8865 9.07541 20.883 10.2797C20.8795 11.4803 19.9352 12.4537 18.766 12.4537C17.5968 12.4537 16.6525 11.4803 16.649 10.2797C16.6455 9.07541 17.5933 8.09261 18.766 8.09261Z" fill="#424041"/>
<path d="M18.766 9.9691C18.933 9.9691 19.0684 10.1082 19.0684 10.2797C19.0684 10.4512 18.933 10.5902 18.766 10.5902C18.599 10.5902 18.4636 10.4512 18.4636 10.2797C18.4636 10.1082 18.599 9.9691 18.766 9.9691Z" fill="#424041"/>
</svg>
