<svg width="139" height="195" viewBox="0 0 139 195" fill="none" xmlns="http://www.w3.org/2000/svg">
<rect width="139" height="195" rx="10" fill="#222222"/>
<path fill-rule="evenodd" clip-rule="evenodd" d="M46.7408 85.5209C46.7292 81.6433 49.8632 78.4788 53.7408 78.4788C57.6185 78.4788 60.7525 81.6433 60.7408 85.5209C60.7293 89.3869 57.6068 92.5209 53.7408 92.5209C49.8749 92.5209 46.7524 89.3869 46.7408 85.5209ZM52.7408 85.5209C52.7408 84.9687 53.1886 84.5209 53.7408 84.5209C54.2931 84.5209 54.7408 84.9687 54.7408 85.5209C54.7408 86.0732 54.2931 86.5209 53.7408 86.5209C53.1886 86.5209 52.7408 86.0732 52.7408 85.5209Z" fill="#F5F5F5"/>
<path fill-rule="evenodd" clip-rule="evenodd" d="M39.7408 88.9788C39.7408 85.9788 45.9968 73.0601 56.7408 69.4789C68.2408 65.6456 60.6178 74.4172 64.7408 76.4788C66.7408 77.4788 72.5397 74.6704 77.7408 74.9788C90.7408 75.7495 98.7181 87.8877 99.2408 101.479C99.7409 114.479 89.9554 126.479 77.2408 126.479C62.7408 126.479 59.2408 120.521 59.2408 114.021C59.2408 110.014 62.235 107.406 66.2408 107.479C69.7168 107.542 73.2408 109.002 73.2408 112.479C73.2408 113.479 69.2562 109.444 66.7408 110.479C65.0759 111.163 63.7408 112.179 63.7408 113.979C63.7408 118.479 70.0821 119.979 75.2408 119.979C82.7408 119.979 89.9906 113.974 89.7408 107.979C89.2408 95.9788 84.7408 98.4789 71.7408 98.4789C58.7408 98.4789 55.2408 98.4788 50.2408 96.9789C45.2409 95.4789 39.7409 91.9788 39.7408 88.9788ZM53.7408 78.4788C49.8632 78.4788 46.7292 81.6433 46.7408 85.5209C46.7524 89.3869 49.8749 92.5209 53.7408 92.5209C57.6068 92.5209 60.7293 89.3869 60.7408 85.5209C60.7525 81.6433 57.6185 78.4788 53.7408 78.4788Z" fill="#814492"/>
<path d="M53.7408 84.5209C53.1886 84.5209 52.7408 84.9687 52.7408 85.5209C52.7408 86.0732 53.1886 86.5209 53.7408 86.5209C54.2931 86.5209 54.7408 86.0732 54.7408 85.5209C54.7408 84.9687 54.2931 84.5209 53.7408 84.5209Z" fill="#814492"/>
</svg>
